<?xml version="1.0" standalone="no"?>
<!DOCTYPE svg PUBLIC "-//W3C//DTD SVG 20010904//EN"
 "http://www.w3.org/TR/2001/REC-SVG-20010904/DTD/svg10.dtd">
<svg version="1.0" xmlns="http://www.w3.org/2000/svg"
 width="260.000000pt" height="180.000000pt" viewBox="0 0 260.000000 180.000000"
 preserveAspectRatio="xMidYMid meet">
<metadata>
Created by potrace 1.10, written by Peter Selinger 2001-2011
</metadata>
<g transform="translate(0.000000,180.000000) scale(0.050000,-0.050000)"
fill="#ffffff" stroke="none">
<path d="M1571 2323 c-89 -47 -122 -53 -295 -53 -231 0 -249 -12 -267 -170
-11 -93 -7 -118 28 -160 l40 -50 -82 -85 c-125 -127 -72 -170 55 -45 99 97
112 152 48 207 -36 31 -40 50 -29 120 18 116 26 119 247 123 157 3 216 12 287
47 120 58 109 65 198 -130 116 -250 126 -315 36 -235 -19 18 -77 37 -127 43
-66 8 -109 27 -150 68 -98 98 -230 53 -253 -85 -12 -77 74 -178 152 -178 46 0
141 75 141 111 0 65 136 34 228 -51 100 -92 112 -83 112 80 0 90 -32 190 -115
360 -77 157 -102 165 -254 83z m-62 -374 c47 -48 12 -129 -56 -129 -63 0 -95
90 -49 136 33 33 67 30 105 -7z"/>
<path d="M2181 2256 c-38 -40 -41 -69 -41 -370 l0 -326 93 0 92 0 -9 200 c-11
223 -5 231 88 128 434 -476 454 -473 464 71 l6 321 -89 0 -89 0 7 -210 c4
-116 2 -210 -4 -210 -14 0 -178 172 -247 260 -124 157 -211 201 -271 136z"/>
<path d="M2960 2276 c0 -3 -3 -166 -5 -361 l-5 -355 85 0 85 0 0 340 c0 187 2
347 5 355 3 8 -33 18 -80 21 -47 4 -85 4 -85 0z"/>
<path d="M3179 2275 c-1 -3 -3 -43 -5 -90 l-4 -85 105 0 105 0 0 -270 0 -270
167 0 167 0 51 105 c125 254 255 417 255 320 0 -16 27 -70 61 -119 88 -131 86
-136 -53 -129 l-122 6 -64 -86 -64 -87 356 -10 c196 -5 359 -8 363 -6 4 2 -21
44 -56 94 -34 50 -121 195 -192 324 -217 386 -310 409 -459 108 -44 -89 -258
-426 -308 -484 -17 -20 -11 84 8 144 15 47 17 48 32 10 16 -41 26 51 27 250
l1 90 95 6 c81 5 97 13 107 54 6 27 25 59 40 72 15 12 28 31 28 40 0 15 -637
28 -641 13z"/>
<path d="M1728 1645 c-36 -62 -59 -133 -64 -205 -13 -163 -6 -160 -363 -160
-227 0 -343 -9 -419 -31 -135 -40 -134 -42 -93 166 44 220 45 221 108 145 40
-48 74 -65 143 -74 61 -8 103 -27 130 -59 130 -153 345 16 249 195 -50 93
-238 76 -270 -24 -22 -70 -132 -50 -227 42 -45 44 -86 80 -92 80 -21 0 -86
-181 -120 -334 -53 -241 -33 -254 270 -188 50 11 223 21 384 21 l295 1 30 59
c17 32 31 90 31 128 0 38 27 120 60 183 89 169 44 218 -52 55z m-372 -49 c75
-75 -18 -185 -107 -127 -58 37 -61 64 -16 114 38 43 88 48 123 13z"/>
<path d="M2160 1375 c1 -110 17 -133 95 -131 65 2 65 2 65 109 0 127 -35 144
-44 22 -9 -128 -76 -134 -76 -6 0 50 -9 91 -20 91 -11 0 -20 -38 -20 -85z"/>
<path d="M2601 1421 c-75 -75 -17 -181 99 -181 61 0 90 79 40 110 -11 7 -20
-6 -20 -29 0 -43 -15 -49 -68 -29 -75 29 -14 146 64 124 11 -3 21 3 23 14 5
39 -96 33 -138 -9z"/>
<path d="M3033 1363 c-46 -92 -49 -123 -12 -123 8 0 19 18 25 40 6 23 27 40
50 40 23 0 44 -17 50 -40 6 -22 24 -40 41 -40 26 0 23 18 -17 105 -63 135 -77
137 -137 18z"/>
<path d="M3459 1460 c-13 -110 -6 -220 16 -220 14 0 25 24 25 54 l0 53 56 -53
c77 -74 84 -70 84 56 0 61 -9 110 -20 110 -11 0 -20 -34 -21 -75 l-1 -75 -68
80 c-38 44 -70 76 -71 70z"/>
<path d="M3898 1455 c-34 -93 -11 -215 42 -215 117 0 169 144 74 204 -22 14
-112 22 -116 11z m119 -93 c6 -43 -23 -81 -62 -82 -8 0 -15 32 -15 71 0 85 65
94 77 11z"/>
<path d="M4345 1362 c-53 -113 -54 -122 -15 -122 17 0 30 18 30 40 0 27 13 40
42 40 25 0 46 -16 52 -40 6 -23 27 -40 50 -40 38 0 38 1 1 55 -20 30 -48 80
-61 110 -32 75 -47 69 -99 -43z"/>
</g>
</svg>
